<mxfile host="Electron" agent="Mozilla/5.0 (X11; Linux x86_64) AppleWebKit/537.36 (KHTML, like Gecko) draw.io/28.0.6 Chrome/138.0.7204.100 Electron/37.2.3 Safari/537.36" version="28.0.6">
  <diagram name="Page-1" id="FwsNePFYdvUOdbCBWORo">
    <mxGraphModel dx="2224" dy="1948" grid="1" gridSize="10" guides="1" tooltips="1" connect="1" arrows="1" fold="1" page="1" pageScale="1" pageWidth="850" pageHeight="1100" math="0" shadow="0">
      <root>
        <mxCell id="0" />
        <mxCell id="1" parent="0" />
        <mxCell id="Xoggndcp23wp55SxGYXw-1" value="Сумма" style="edgeStyle=orthogonalEdgeStyle;rounded=0;orthogonalLoop=1;jettySize=auto;html=1;entryX=0;entryY=0.5;entryDx=0;entryDy=0;" parent="1" source="Xoggndcp23wp55SxGYXw-3" target="Xoggndcp23wp55SxGYXw-5" edge="1">
          <mxGeometry relative="1" as="geometry" />
        </mxCell>
        <mxCell id="Xoggndcp23wp55SxGYXw-35" value="Информация об оплате" style="edgeStyle=orthogonalEdgeStyle;rounded=0;orthogonalLoop=1;jettySize=auto;html=1;curved=1;" parent="1" source="Xoggndcp23wp55SxGYXw-3" target="gMQOudfNVqeZfbUMY9HA-1" edge="1">
          <mxGeometry x="-0.2122" relative="1" as="geometry">
            <Array as="points">
              <mxPoint x="90" y="220" />
              <mxPoint x="165" y="220" />
            </Array>
            <mxPoint as="offset" />
          </mxGeometry>
        </mxCell>
        <mxCell id="Xoggndcp23wp55SxGYXw-3" value="Кассир" style="html=1;dashed=0;whiteSpace=wrap;" parent="1" vertex="1">
          <mxGeometry x="40" y="55" width="100" height="50" as="geometry" />
        </mxCell>
        <mxCell id="Xoggndcp23wp55SxGYXw-25" value="Сумма" style="edgeStyle=orthogonalEdgeStyle;rounded=0;orthogonalLoop=1;jettySize=auto;html=1;entryX=0;entryY=0.5;entryDx=0;entryDy=0;" parent="1" source="Xoggndcp23wp55SxGYXw-5" target="Xoggndcp23wp55SxGYXw-24" edge="1">
          <mxGeometry relative="1" as="geometry" />
        </mxCell>
        <mxCell id="Xoggndcp23wp55SxGYXw-5" value="1. Инициализация транзакции" style="shape=ellipse;html=1;dashed=0;whiteSpace=wrap;perimeter=ellipsePerimeter;" parent="1" vertex="1">
          <mxGeometry x="270" y="20" width="120" height="120" as="geometry" />
        </mxCell>
        <mxCell id="Xoggndcp23wp55SxGYXw-13" value="Файловое хранилище" style="html=1;dashed=0;whiteSpace=wrap;shape=partialRectangle;right=0;" parent="1" vertex="1">
          <mxGeometry x="520" y="300" width="100" height="40" as="geometry" />
        </mxCell>
        <mxCell id="Xoggndcp23wp55SxGYXw-21" value="Данные о приёме" style="edgeStyle=orthogonalEdgeStyle;rounded=0;orthogonalLoop=1;jettySize=auto;html=1;curved=1;" parent="1" source="Xoggndcp23wp55SxGYXw-20" target="Xoggndcp23wp55SxGYXw-3" edge="1">
          <mxGeometry x="0.0435" y="20" relative="1" as="geometry">
            <Array as="points">
              <mxPoint x="-110" y="80" />
            </Array>
            <mxPoint as="offset" />
          </mxGeometry>
        </mxCell>
        <mxCell id="Xoggndcp23wp55SxGYXw-20" value="dfd-appointment" style="shape=ellipse;html=1;dashed=0;whiteSpace=wrap;perimeter=ellipsePerimeter;fillColor=#d5e8d4;strokeColor=#82b366;" parent="1" vertex="1">
          <mxGeometry x="-170" y="-120" width="120" height="120" as="geometry" />
        </mxCell>
        <mxCell id="Xoggndcp23wp55SxGYXw-23" style="edgeStyle=orthogonalEdgeStyle;rounded=0;orthogonalLoop=1;jettySize=auto;html=1;dashed=1;curved=1;" parent="1" source="Xoggndcp23wp55SxGYXw-22" target="Xoggndcp23wp55SxGYXw-20" edge="1">
          <mxGeometry relative="1" as="geometry" />
        </mxCell>
        <mxCell id="Xoggndcp23wp55SxGYXw-27" value="Банковская карта" style="edgeStyle=orthogonalEdgeStyle;rounded=0;orthogonalLoop=1;jettySize=auto;html=1;curved=1;" parent="1" source="Xoggndcp23wp55SxGYXw-22" target="Xoggndcp23wp55SxGYXw-26" edge="1">
          <mxGeometry relative="1" as="geometry" />
        </mxCell>
        <mxCell id="Xoggndcp23wp55SxGYXw-38" style="edgeStyle=orthogonalEdgeStyle;rounded=0;orthogonalLoop=1;jettySize=auto;html=1;curved=1;dashed=1;" parent="1" source="Xoggndcp23wp55SxGYXw-22" target="Xoggndcp23wp55SxGYXw-37" edge="1">
          <mxGeometry relative="1" as="geometry">
            <Array as="points">
              <mxPoint x="90" y="-200" />
            </Array>
          </mxGeometry>
        </mxCell>
        <mxCell id="Xoggndcp23wp55SxGYXw-22" value="Пациент" style="html=1;dashed=0;whiteSpace=wrap;" parent="1" vertex="1">
          <mxGeometry x="40" y="-85" width="100" height="50" as="geometry" />
        </mxCell>
        <mxCell id="Xoggndcp23wp55SxGYXw-30" value="Платёж" style="edgeStyle=orthogonalEdgeStyle;rounded=0;orthogonalLoop=1;jettySize=auto;html=1;" parent="1" source="Xoggndcp23wp55SxGYXw-24" target="Xoggndcp23wp55SxGYXw-29" edge="1">
          <mxGeometry relative="1" as="geometry" />
        </mxCell>
        <mxCell id="Xoggndcp23wp55SxGYXw-24" value="ККМ" style="html=1;dashed=0;whiteSpace=wrap;" parent="1" vertex="1">
          <mxGeometry x="520" y="55" width="100" height="50" as="geometry" />
        </mxCell>
        <mxCell id="Xoggndcp23wp55SxGYXw-28" value="Платёжные данные" style="edgeStyle=orthogonalEdgeStyle;rounded=0;orthogonalLoop=1;jettySize=auto;html=1;entryX=0.5;entryY=0;entryDx=0;entryDy=0;curved=1;" parent="1" source="Xoggndcp23wp55SxGYXw-26" target="Xoggndcp23wp55SxGYXw-24" edge="1">
          <mxGeometry x="-0.0508" y="-30" relative="1" as="geometry">
            <mxPoint as="offset" />
          </mxGeometry>
        </mxCell>
        <mxCell id="Xoggndcp23wp55SxGYXw-26" value="2. Оплата" style="shape=ellipse;html=1;dashed=0;whiteSpace=wrap;perimeter=ellipsePerimeter;gradientColor=none;" parent="1" vertex="1">
          <mxGeometry x="270" y="-120" width="120" height="120" as="geometry" />
        </mxCell>
        <mxCell id="Xoggndcp23wp55SxGYXw-33" value="Информация о&lt;div&gt;платеже&lt;/div&gt;" style="edgeStyle=orthogonalEdgeStyle;rounded=0;orthogonalLoop=1;jettySize=auto;html=1;" parent="1" source="Xoggndcp23wp55SxGYXw-29" target="Xoggndcp23wp55SxGYXw-32" edge="1">
          <mxGeometry relative="1" as="geometry" />
        </mxCell>
        <mxCell id="Xoggndcp23wp55SxGYXw-29" value="3. Регистрация операции в 1С" style="shape=ellipse;html=1;dashed=0;whiteSpace=wrap;perimeter=ellipsePerimeter;" parent="1" vertex="1">
          <mxGeometry x="730" y="20" width="120" height="120" as="geometry" />
        </mxCell>
        <mxCell id="Xoggndcp23wp55SxGYXw-32" value="1С Бухгалтерия" style="html=1;dashed=0;whiteSpace=wrap;shape=partialRectangle;right=0;" parent="1" vertex="1">
          <mxGeometry x="740" y="202.5" width="100" height="37.5" as="geometry" />
        </mxCell>
        <mxCell id="Xoggndcp23wp55SxGYXw-36" value="Excel-книга" style="edgeStyle=orthogonalEdgeStyle;rounded=0;orthogonalLoop=1;jettySize=auto;html=1;" parent="1" source="Xoggndcp23wp55SxGYXw-34" target="gMQOudfNVqeZfbUMY9HA-2" edge="1">
          <mxGeometry relative="1" as="geometry" />
        </mxCell>
        <mxCell id="Xoggndcp23wp55SxGYXw-34" value="4.2. Регистрация платежа в журнале" style="shape=ellipse;html=1;dashed=0;whiteSpace=wrap;perimeter=ellipsePerimeter;" parent="1" vertex="1">
          <mxGeometry x="270" y="160" width="120" height="120" as="geometry" />
        </mxCell>
        <mxCell id="Xoggndcp23wp55SxGYXw-37" value="dfd-doctor-visit" style="shape=ellipse;html=1;dashed=0;whiteSpace=wrap;perimeter=ellipsePerimeter;fillColor=#d5e8d4;strokeColor=#82b366;" parent="1" vertex="1">
          <mxGeometry x="270" y="-260" width="120" height="120" as="geometry" />
        </mxCell>
        <mxCell id="gMQOudfNVqeZfbUMY9HA-3" style="edgeStyle=orthogonalEdgeStyle;rounded=0;orthogonalLoop=1;jettySize=auto;html=1;" edge="1" parent="1" source="gMQOudfNVqeZfbUMY9HA-1" target="Xoggndcp23wp55SxGYXw-34">
          <mxGeometry relative="1" as="geometry" />
        </mxCell>
        <mxCell id="gMQOudfNVqeZfbUMY9HA-1" value="4.1. RBAC" style="ellipse;whiteSpace=wrap;html=1;aspect=fixed;fillColor=#ffe6cc;strokeColor=#d79b00;" vertex="1" parent="1">
          <mxGeometry x="140" y="175" width="90" height="90" as="geometry" />
        </mxCell>
        <mxCell id="gMQOudfNVqeZfbUMY9HA-4" style="edgeStyle=orthogonalEdgeStyle;rounded=0;orthogonalLoop=1;jettySize=auto;html=1;" edge="1" parent="1" source="gMQOudfNVqeZfbUMY9HA-2" target="Xoggndcp23wp55SxGYXw-13">
          <mxGeometry relative="1" as="geometry" />
        </mxCell>
        <mxCell id="gMQOudfNVqeZfbUMY9HA-2" value="Шифрование" style="ellipse;whiteSpace=wrap;html=1;aspect=fixed;fillColor=#ffe6cc;strokeColor=#d79b00;" vertex="1" parent="1">
          <mxGeometry x="525" y="175" width="90" height="90" as="geometry" />
        </mxCell>
      </root>
    </mxGraphModel>
  </diagram>
</mxfile>
